Patient4_TMGait_0pt7_01_right_11_EMG.mot
version=1
nRows=37
nColumns=33
inDegrees=no
endheader
time	1LAddLong	2LGlutMax	3LGlutMed	4LIliopsoas	5LSemiMemb	6LBicFemLong	7LRecFem	8LVastMed	9LVastLat	10LGasMed	11LTibAnt	12lTibPost	13LPeroneusLong	14LSol	15LExtDigLong	16LFlexDigLong	17RAddLong	18RGlutMax	19RGlutMed	20RIliopsoas	21RSemiMemb	22RBicFemLong	23RRecFem	24RVastMed	25RVastLat	26RGasMed	27RTibAnt	28RTibPost	29RPeroneusLong	30RSol	31RExtDigLong	32RFlexDigLong
12.06	0.011139	-0.1091	0.11643	0.005798	0.037231	0.69168	-0.087128	-0.002289	0.04303	0.07782	0.054169	-0.015564	-0.00473	-0.13016	-0.21225	-0.017242	0.10864	-0.10941	0.57922	0.025787	-0.030823	0.039368	0.20584	-0.045013	-0.049591	0.004425	-0.44723	-0.002747	0.057526	0.16678	0.00351	-0.013275
12.061	0.005035	-0.11612	0.10742	-0.010529	0.010986	0.36484	-0.080414	-0.003204	0.034637	0.035706	0.068817	-0.021667	0.19196	-0.067749	-0.14221	-0.011139	0.1561	-0.046692	0.77026	0.048676	-0.047302	0.036316	0.070953	-0.082092	-0.036774	0.002289	-0.43152	-0.005646	0.36057	0.19928	-0.001221	-0.011902
12.062	0.010223	-0.17288	0.00824	-0.010681	0.006256	0.037231	-0.10849	-0.00473	0.025635	-0.030823	0.050659	-0.017548	0.14297	0.11032	0.054932	0.001526	0.13611	-0.11993	0.88409	-0.003967	-0.058289	0.029907	0.038147	-0.1207	-0.042877	0.001373	-0.37979	-0.009613	0.089264	0.1947	-0.000458	-0.011597
12.063	0	-0.25543	-0.16693	0.01297	0.020905	-0.31494	-0.058594	-0.005035	0.040436	-0.018158	-0.02243	-0.007935	-0.012665	0.35355	-0.18005	0.002899	0.11322	-0.13031	0.57892	0.052338	-0.060883	0.024261	0.15182	-0.13229	-0.048218	-0.002441	-0.23361	0.001831	0.046234	0.11795	-0.005341	-0.016785
12.064	-0.012512	-0.30533	-0.14221	-0.019073	0.032654	0.19058	0.033722	-0.005646	0.022583	0.004425	-0.1413	0.009766	-0.43625	0.31342	0.11459	0.008545	0.076904	-0.16068	0.41672	-0.016937	-0.065613	0.036011	0.061035	-0.13687	-0.04364	0.008698	0.096741	-0.007477	-0.10635	0.012817	-0.001984	-0.009613
12.065	-0.001984	-0.28458	-0.0914	-0.016174	0.020447	-0.32272	0.037689	-0.014801	0.049744	0.020752	-0.08728	0.009613	-0.027161	0.34561	-0.35797	0.008087	0.050659	-0.073853	0.68909	-0.052338	-0.065308	0.021362	-0.086975	-0.1294	-0.029907	0.000763	0.18707	-0.003967	-0.6897	-0.065918	-0.001526	-0.002441
12.066	-0.012512	-0.28442	-0.081024	-0.007019	-0.003662	-0.92667	0.099487	-0.024872	0.057678	-0.006409	0.16281	-0.014191	-0.327	0.13901	-0.23956	0.012512	0.015717	-0.094757	1.0295	0.01358	-0.055389	0.035858	-0.099792	-0.082855	-0.045319	0.004272	0.094452	-0.00061	-0.354	-0.089264	-0.001831	-0.000458
12.067	-0.012207	-0.24017	-0.00412	0.009766	-0.050354	-1.3614	0.075836	-0.02594	0.062561	0.10498	0.23392	-0.017242	0.83893	0.094604	0.047913	-0.009003	-0.015564	-0.16968	0.34317	0.073395	-0.048828	0.023804	-0.092926	-0.084686	-0.033875	0.004883	0.033569	-0.009003	0.10132	-0.001526	0.010529	-0.004272
12.068	-0.023041	-0.18616	0.076294	0.026398	-0.050049	-0.42358	0.06958	-0.020142	0.062714	0.26916	0.12466	-0.016174	1.004	0.068207	-0.15991	-0.007172	-0.010681	-0.19684	0.28488	0.072327	-0.013123	0.066223	-0.36224	-0.092621	-0.045166	0.003815	0.18875	-0.009308	0.22705	0.099335	-0.000763	-0.003967
12.069	-0.012665	-0.17212	0.036926	0.0177	-0.046082	0.04303	0.077667	-0.018463	0.038147	0.4538	-0.14465	-0.006866	0.5423	-0.010071	-0.11795	-0.020752	0.005646	-0.1088	0.36118	0.081024	-0.008545	0.077209	-0.27756	-0.098114	-0.057983	0.005035	0.25787	-0.010223	0.14984	0.024719	0.002899	-0.001831
12.07	-0.010223	-0.16373	0.091858	0.017548	-0.049438	0.088959	0.097504	-0.016479	0.011444	0.63156	-0.10788	-0.003662	0.43991	0.22842	0.095367	0.005646	-0.005798	-0.11505	0.15305	0.041351	-0.017548	0.059967	-0.017853	-0.11185	-0.049286	0.013428	0.027466	-0.01297	0.20462	-0.098419	0.001221	-0.006561
12.071	0.033112	-0.14023	0.075226	0.013733	0.074158	-0.006561	0.08667	-0.018158	0.015106	0.6308	-0.09903	-0.023499	0.1767	0.21088	0.056915	-0.010529	-0.040894	-0.10223	-0.2681	0.008698	-0.015564	0.075684	0.083313	-0.13962	-0.05188	0.006866	-0.14725	-0.009918	0.016022	-0.076141	0.001526	-0.002136
12.072	0.11108	-0.12985	-0.038757	-0.027313	0.081329	-0.17944	0.10284	-0.013275	-0.022278	0.58929	-0.02533	-0.008698	-0.78354	-0.003967	0.022583	-0.008698	-0.054779	-0.066833	-0.24933	-0.031128	-0.014343	0.068817	0.10178	-0.12756	-0.039673	0.001678	-0.02121	-0.008392	-0.19638	-0.061798	0.002747	-0.001373
12.073	0.10132	-0.12192	0.009308	-0.02594	0.061188	-0.26199	0.112	-0.017395	-0.047455	0.22446	0.048676	-0.018768	-1.2535	-0.16586	0.1651	-0.013885	-0.053406	-0.042572	0.36789	-0.050659	-0.002747	0.066986	-0.19043	-0.1648	-0.044556	0.006409	-0.112	-0.013275	-0.085907	-0.063477	0.00061	-0.009918
12.074	-0.009766	-0.13138	0.1471	-0.017242	0.099945	-0.74036	0.1152	-0.009308	-0.058594	-0.47211	0.060577	-0.008545	-0.52978	-0.4451	0.24475	-0.008392	-0.060577	-0.078888	0.79224	-0.089417	-0.018921	0.06012	-0.21454	-0.20371	-0.058136	0.01358	-0.29098	-0.010223	0.080414	-0.072784	0.000305	-0.004578
12.075	-0.006714	-0.12421	0.20844	-0.002747	0.080414	-0.65872	0.12161	0.006866	-0.08194	-0.52734	0.05722	-0.001831	-0.18555	-0.31006	0.52811	-0.010376	-0.045776	-0.121	1.0306	-0.10513	-0.006714	0.059204	-0.18204	-0.1326	-0.031738	0.006866	-0.22995	-0.00885	0.070496	-0.027313	-0.001068	-0.011444
12.076	0.006256	-0.16769	0.11231	0.006409	0.025177	-0.24368	0.14862	0.007172	-0.081024	-0.13245	0.000763	0.021667	-0.066223	-0.15823	0.59021	-0.005035	-0.027161	-0.16495	0.49027	-0.032959	0	0.074921	-0.10147	-0.092468	-0.002441	0.007935	-0.22705	-0.013428	0.2623	-0.040588	0.002747	-0.001831
12.077	0.009613	-0.11612	0.011139	-0.004578	0.018158	-0.047607	0.25391	0.006104	-0.030518	-0.34943	-0.06485	0.020599	0.21881	-0.32532	0.5545	0.015106	-0.024261	-0.16861	0.32532	0.032043	-0.004883	0.071106	0.052643	-0.059052	0.007782	0.006104	-0.083923	-0.013428	0.06897	-0.060883	-0.001221	-0.003357
12.078	0.001373	-0.11795	-0.014648	0.003815	-0.034027	-0.024872	0.21683	0.006409	-0.053101	-0.33691	-0.072021	0.083313	0.16174	-0.31754	0.50934	0.057983	-0.020142	-0.18387	0.10101	-0.051117	-0.004883	0.068665	0.14343	0.021667	-0.005188	0.001373	0.11307	-0.015259	0.064087	-0.045319	0.001373	0
12.079	0.005798	-0.1181	0.027771	-0.000763	0.010376	0.16998	0.11398	0.007629	-0.073853	-0.35996	-0.085754	0.14313	0.082092	-0.59937	0.46829	0.065002	-0.008698	-0.19318	-0.070496	0.018005	-0.000458	0.05722	0.24216	-0.001221	-0.019836	-0.00061	0.27603	-0.011139	-0.061951	-0.009766	0.001221	-0.005798
12.08	0.007019	-0.10132	0.027924	0.003357	0.03952	0.20981	0.10803	0.001221	-0.077972	-0.6337	-0.02655	-0.27847	0.41641	-0.90134	0.46295	0.018005	-0.004272	-0.15808	0.4068	-0.007019	-0.008545	0.070496	0.34821	0.068512	0	0.001526	0.39002	-0.014648	-0.20828	-0.026245	-0.002747	0.000153
12.081	-0.00412	-0.10635	0.011749	0.008392	0.020294	0.18601	0.13229	-0.011444	-0.063477	-0.40604	-0.011902	0.036621	0.36102	-0.63889	0.41901	0.005188	-0.002747	-0.1384	0.40649	-0.039978	-0.00824	0.066376	0.38895	0.098419	0.002136	-0.00061	0.31509	-0.00473	-0.1915	0.015411	0.000305	0.000763
12.082	-0.007019	-0.14618	0.039368	0.021515	0.010986	-0.003357	0.088043	-0.009308	-0.088348	0.045929	-0.004578	0.091095	-0.30975	-0.036469	0.401	-0.018921	0.012665	-0.17532	0.063477	-0.050049	-0.025787	0.048523	0.39581	0.097198	0.018158	-0.001678	-0.036163	-0.011902	-0.16235	0.016174	-0.001373	0.000153
12.083	-0.001526	-0.12619	0.11185	0.005188	0.040741	0.004578	0.074158	0.002441	-0.064697	0.18127	0.023193	0.034332	-0.1886	-0.18799	0.43976	-0.010986	0.027771	-0.13718	0.020142	-0.10498	-0.001526	0.03891	0.27664	0.085907	0.007782	0.009613	-0.16159	-0.009003	0.10819	-0.093842	0	-0.001831
12.084	-0.020447	-0.13763	0.099792	0.007782	0.01358	0.47943	0.065308	0.010071	-0.10178	-0.16632	-0.001984	0.012817	-0.1091	-0.23331	0.35202	0.019684	0.038757	-0.083923	0.12528	0.046997	0.01709	0.061798	0.11688	0.080261	0.004425	0.012054	-0.16174	-0.011597	0.07309	-0.12131	-0.001831	0.001526
12.085	-0.023956	-0.15243	0.010071	0.011902	0.01297	0.73547	0.046234	0.010529	-0.089569	-0.41351	-0.00885	0.024567	-0.38605	0.44113	0.43549	0.006104	0.017242	-0.071564	-0.11826	0.17487	0.029297	0.050964	-0.035248	0.054016	-0.006866	0.005646	0.056	-0.010223	0.045013	-0.11093	0.000763	0.002899
12.086	-0.029755	-0.14114	0.049133	0.006409	-0.033112	0.63339	0.14465	0.01236	-0.037994	-0.28259	-0.010223	0.030212	-0.027771	0.7222	0.39871	-0.007324	0.01297	-0.11108	0.001068	0.1416	-0.03418	0.03006	-0.045166	0.008087	-0.020294	0.005646	0.26886	-0.014038	-0.13992	-0.040894	-0.001678	0.005646
12.087	-0.006561	-0.13992	0.11414	-0.006104	-0.067596	0.36255	0.1358	0.019836	-0.007935	-0.25604	-0.020447	0.02533	-0.029755	0.52002	0.1915	-0.001678	0.011292	-0.083923	-0.098572	0.092773	-0.015717	0.022583	0.087433	-0.045319	-0.034943	0.015259	0.5191	-0.008087	-0.08606	-0.12238	-0.000458	-0.000305
12.088	0.004578	-0.12421	0.023193	0.010071	0.013275	0.16312	0.13473	0.021973	0.054016	-0.24933	-0.13107	0.016479	-0.053864	0.62714	0.20004	-0.000153	0.016479	-0.13138	-0.20065	0.067139	0.007629	0.018311	0.09964	-0.095062	0.002747	0.004883	0.42511	-0.004425	-0.37155	-0.17517	-0.002747	0.003357
12.089	-0.000153	-0.098724	-0.02243	0.003204	0.005646	-0.097656	0.18723	0.020752	0.059052	-0.19379	-0.11505	0.011292	-0.17746	0.83771	0.61813	-0.003662	0.009613	-0.11185	-0.2327	0.12451	0.012207	0.024872	0.12131	-0.055084	-0.018768	0.003662	0.27817	-0.007172	-0.27069	-0.11658	0.000305	0.002136
12.09	0.005035	-0.068512	-0.12116	-0.006104	-0.004883	-0.54153	0.17303	0.015411	0.025787	-0.16617	-0.049286	0.004425	-0.055847	0.61539	0.50568	0.000153	-0.000458	-0.074615	-0.15533	0.10147	-0.02594	0.018463	0.071869	-0.044098	-0.023499	-0.001984	0.071564	-0.00824	-0.13763	-0.046844	0.000458	-0.012817
12.091	0.010986	-0.066528	-0.15564	0.011749	0.074158	-0.31372	0.11063	0.027313	-0.14099	-0.17609	0.18601	0.001984	0.18524	0.37491	-0.30212	0.007629	0.002289	-0.070801	-0.17853	0.058136	-0.031586	0.0383	0.026398	0.020752	-0.022278	0.003204	0.089722	-0.007935	-0.1648	-0.004425	-0.001373	-0.001984
12.092	0.005035	0.006104	-0.030975	0.023193	0.051727	-0.084839	0.045319	0.029144	-0.003967	-0.10803	0.34653	0.010376	0.10971	0.3241	0.18738	0.002136	0.015106	-0.046539	-0.085449	0.030365	-0.03418	0.071716	0.10773	0.039825	-0.036774	0.010834	0.007782	-0.005951	-0.18372	0.00946	-0.002136	-0.007477
12.093	0.016937	-0.020294	0.18539	0.003052	0.014343	-0.04425	-0.036316	-0.001068	0.12619	-0.092163	0.49088	0.001984	-0.08606	0.44052	-0.19089	0.004578	0.000458	-0.001678	-0.022736	-0.000763	-0.037231	0.097046	0.051117	0.083923	-0.022583	0.010071	-0.069885	-0.001984	-0.090485	-0.004272	-0.002747	-0.001678
12.094	0.029144	-0.036469	0.098572	0.00473	0.039673	-0.16937	-0.098419	-0.007019	0.20966	-0.028381	0.43625	0.004578	-0.028076	0.41229	-0.1796	0.002899	-0.003662	-0.019379	0.071259	-0.040131	-0.054169	0.10056	-0.056305	0.12421	-0.009308	0.018005	-0.13489	-0.00351	0.045624	0.011749	-0.000916	0.005798
12.095	0.022125	-0.090637	0.14572	0.01297	0.030518	-0.11124	0.026703	0.001526	0.1709	-0.059814	0.040283	0.010376	0.18387	0.30182	-0.32593	0.004425	0.005951	-0.044861	0.12161	-0.044403	-0.016785	0.11139	0.055695	0.061951	-0.025177	0.00885	-0.067444	-0.002136	0.071716	0.022736	-0.000763	-0.00946
12.096	0.006561	-0.11765	0.084381	0.013123	-0.016785	0.038452	0.038452	-0.001526	0.1915	-0.044556	-0.29877	0.010071	0.26123	0.085144	-0.67612	0.00473	0.012512	-0.012665	-0.025787	-0.12131	-0.002747	0.10468	-0.03479	-0.052185	-0.007019	0.006409	0.01297	-0.002594	0.095673	-0.0354	0.005341	-0.014191
